<svg xmlns="http://www.w3.org/2000/svg" fill="none" viewBox="0 0 600 600"><g clip-path="url(#devicon-firefox-14-a)"><path fill="url(#devicon-firefox-15-b)" d="M539.6 118.3A296 296 0 0 0 312 .7C242.3-.7 194.2 20.2 167 37c36.4-21 89-33 135.3-32.5C421 6 548.5 87 567.3 232.5c21.8 167.3-94.7 307-258.6 307.4-180.3.4-290-159.2-261.3-302.6q.9-10.5 3.1-21a284 284 0 0 1 31.5-105C61.2 122 34.8 156 21.7 187.5A310 310 0 0 0 2.2 338.8l1.4 11.6a300.4 300.4 0 1 0 536-232"/><path fill="url(#devicon-firefox-16-c)" d="M539.6 118.3A296 296 0 0 0 312 .7C242.3-.7 194.2 20.2 167 37c36.4-21 89-33 135.3-32.5C421 6 548.5 87 567.3 232.5c21.8 167.3-94.7 307-258.6 307.4-180.3.4-290-159.2-261.3-302.6q.9-10.5 3.1-21a284 284 0 0 1 31.5-105C61.2 122 34.8 156 21.7 187.5A310 310 0 0 0 2.2 338.8l1.4 11.6a300.4 300.4 0 1 0 536-232" opacity=".7"/><path fill="url(#devicon-firefox-17-d)" d="M539.6 118.3A296 296 0 0 0 312 .7C242.3-.7 194.2 20.2 167 37c36.4-21 89-33 135.3-32.5C421 6 548.5 87 567.3 232.5c21.8 167.3-94.7 307-258.6 307.4-180.3.4-290-159.2-261.3-302.6q.9-10.5 3.1-21a284 284 0 0 1 31.5-105C61.2 122 34.8 156 21.7 187.5A310 310 0 0 0 2.2 338.8l1.4 11.6a300.4 300.4 0 1 0 536-232"/><path fill="url(#devicon-firefox-18-e)" d="M539.6 118.3A296 296 0 0 0 312 .7C242.3-.7 194.2 20.2 167 37c36.4-21 89-33 135.3-32.5C421 6 548.5 87 567.3 232.5c21.8 167.3-94.7 307-258.6 307.4-180.3.4-290-159.2-261.3-302.6q.9-10.5 3.1-21a284 284 0 0 1 31.5-105C61.2 122 34.8 156 21.7 187.5A310 310 0 0 0 2.2 338.8l1.4 11.6a300.4 300.4 0 1 0 536-232"/><path fill="url(#devicon-firefox-19-f)" d="M539.6 118.3A296 296 0 0 0 312 .7C242.3-.7 194.2 20.2 167 37c36.4-21 89-33 135.3-32.5C421 6 548.5 87 567.3 232.5c21.8 167.3-94.7 307-258.6 307.4-180.3.4-290-159.2-261.3-302.6q.9-10.5 3.1-21a284 284 0 0 1 31.5-105C61.2 122 34.8 156 21.7 187.5A310 310 0 0 0 2.2 338.8l1.4 11.6a300.4 300.4 0 1 0 536-232"/><path fill="url(#devicon-firefox-20-g)" d="M574.7 224.3C557.8 72 422 3.5 302.3 4.5 256 5 203.4 16 167 37a148 148 0 0 0-26.7 20.3q1.5-1.4 8.6-6.5l.5-.3.4-.3q26.7-18 57.7-26.8A326 326 0 0 1 306.4 12a249.4 249.4 0 0 1 234.3 239.9c2.7 99-78.3 178-171.7 182.5-68 3.4-132-29.5-163.3-95.3q-11-22.6-14.7-47.5C176.2 191.4 243.4 106 305 85c-33.2-29-116.5-27-178.6 18.5-44.6 32.9-73.6 82.9-83.2 142.5a247 247 0 0 0 17.5 135 265 265 0 0 0 225.7 160.8q11.1.8 22.3.8c198.5 0 284.6-150.6 266-318.2"/><path fill="url(#devicon-firefox-21-h)" d="M574.7 224.3C557.8 72 422 3.5 302.3 4.5 256 5 203.4 16 167 37a148 148 0 0 0-26.7 20.3q1.5-1.4 8.6-6.5l.5-.3.4-.3q26.7-18 57.7-26.8A326 326 0 0 1 306.4 12a249.4 249.4 0 0 1 234.3 239.9c2.7 99-78.3 178-171.7 182.5-68 3.4-132-29.5-163.3-95.3q-11-22.6-14.7-47.5C176.2 191.4 243.4 106 305 85c-33.2-29-116.5-27-178.6 18.5-44.6 32.9-73.6 82.9-83.2 142.5a247 247 0 0 0 17.5 135 265 265 0 0 0 225.7 160.8q11.1.8 22.3.8c198.5 0 284.6-150.6 266-318.2"/><path fill="url(#devicon-firefox-22-i)" d="M574.7 224.3C557.8 72 422 3.5 302.3 4.5 256 5 203.4 16 167 37a148 148 0 0 0-26.7 20.3q1.5-1.4 8.6-6.5l.5-.3.4-.3q26.7-18 57.7-26.8A326 326 0 0 1 306.4 12a249.4 249.4 0 0 1 234.3 239.9c2.7 99-78.3 178-171.7 182.5-68 3.4-132-29.5-163.3-95.3q-11-22.6-14.7-47.5C176.2 191.4 243.4 106 305 85c-33.2-29-116.5-27-178.6 18.5-44.6 32.9-73.6 82.9-83.2 142.5a247 247 0 0 0 17.5 135 265 265 0 0 0 225.7 160.8q11.1.8 22.3.8c198.5 0 284.6-150.6 266-318.2" opacity=".5"/><path fill="url(#devicon-firefox-23-j)" d="M574.7 224.3C557.8 72 422 3.5 302.3 4.5 256 5 203.4 16 167 37a148 148 0 0 0-26.7 20.3q1.5-1.4 8.6-6.5l.5-.3.4-.3q26.7-18 57.7-26.8A326 326 0 0 1 306.4 12a249.4 249.4 0 0 1 234.3 239.9c2.7 99-78.3 178-171.7 182.5-68 3.4-132-29.5-163.3-95.3q-11-22.6-14.7-47.5C176.2 191.4 243.4 106 305 85c-33.2-29-116.5-27-178.6 18.5-44.6 32.9-73.6 82.9-83.2 142.5a247 247 0 0 0 17.5 135 265 265 0 0 0 225.7 160.8q11.1.8 22.3.8c198.5 0 284.6-150.6 266-318.2" opacity=".5"/><path fill="url(#devicon-firefox-24-k)" d="M369 434.3c128.2-7.8 183-114 186.5-189.3C561 127.3 491.1.4 306.4 11.8a326 326 0 0 0-98.9 11.6c-20.4 6-39.9 15.1-57.7 26.8l-.4.3-.5.3-8.4 6.3a251 251 0 0 1 157.3-29.5c106 14 203 96.4 203 205.3 0 83.7-64.7 147.7-140.5 143.1-112.6-6.7-141-122.2-82.4-172.1-15.8-3.4-45.5 3.3-66.1 34.1-18.6 27.8-17.5 70.6-6 101A166 166 0 0 0 369 434.3"/><path fill="url(#devicon-firefox-25-l)" d="M540.1 141a168 168 0 0 0-36.6-61 227 227 0 0 0-68.2-48.7 304 304 0 0 0-67-23.8c-40.9-9-83.2-9.2-124.2-.8-42.6 9-80.1 27.5-103.8 50.5a252 252 0 0 1 294 36.7 203 203 0 0 1 32.4 39.8c36.7 59.7 33.3 134.7 4.6 179-21.2 32.9-66.7 63.7-109.2 63.4a177 177 0 0 0 162.8-81.6c29.9-46.6 30.9-106 15.2-153.5"/><path fill="url(#devicon-firefox-26-m)" d="M540.1 141a168 168 0 0 0-36.6-61 227 227 0 0 0-68.2-48.7 304 304 0 0 0-67-23.8c-40.9-9-83.2-9.2-124.2-.8-42.6 9-80.1 27.5-103.8 50.5a252 252 0 0 1 294 36.7 203 203 0 0 1 32.4 39.8c36.7 59.7 33.3 134.7 4.6 179-21.2 32.9-66.7 63.7-109.2 63.4a177 177 0 0 0 162.8-81.6c29.9-46.6 30.9-106 15.2-153.5"/><path fill="url(#devicon-firefox-27-n)" d="M539.6 118.3q-12-15.8-26.1-29.8a235 235 0 0 0-23.8-22q7.2 6.4 13.8 13.5a169 169 0 0 1 36.6 61c15.7 47.5 14.7 106.9-15.2 153.5a177 177 0 0 1-156.4 81.7l-8.2-.2c-112.6-6.7-141-122.2-82.4-172.1-15.8-3.4-45.5 3.3-66.1 34.2-18.6 27.7-17.5 70.5-6 100.9q-11.2-22.6-14.8-47.5C176.2 191.4 243.4 106 305 85c-33.2-29-116.5-27-178.6 18.5A209 209 0 0 0 50.8 213 288 288 0 0 1 82 111.4C61.2 122 34.8 156 21.7 187.5A310 310 0 0 0 2.2 338.8l1.4 11.6a300.4 300.4 0 1 0 536-232"/></g><defs><radialGradient id="devicon-firefox-15-b" cx="0" cy="0" r="1" gradientTransform="matrix(43200 0 0 43114.1 46080 7186.3)" gradientUnits="userSpaceOnUse"><stop stop-color="#FFF36E"/><stop offset=".5" stop-color="#FC4055"/><stop offset="1" stop-color="#E31587"/></radialGradient><radialGradient id="devicon-firefox-16-c" cx="0" cy="0" r="1" gradientTransform="matrix(33600 0 0 33533.2 4800 8623.4)" gradientUnits="userSpaceOnUse"><stop stop-color="#C60084"/><stop offset="1" stop-color="#FC4055" stop-opacity="0"/></radialGradient><radialGradient id="devicon-firefox-17-d" cx="0" cy="0" r="1" gradientTransform="matrix(63840 0 0 63713.1 52800 3833)" gradientUnits="userSpaceOnUse"><stop stop-color="#FFDE67" stop-opacity=".6"/><stop offset=".7" stop-color="#FC4055" stop-opacity="0"/></radialGradient><radialGradient id="devicon-firefox-18-e" cx="0" cy="0" r="1" gradientTransform="matrix(84000 0 0 83833 21120 24431.9)" gradientUnits="userSpaceOnUse"><stop offset=".1" stop-color="#810220"/><stop offset=".3" stop-color="#FC4055" stop-opacity="0"/></radialGradient><radialGradient id="devicon-firefox-19-f" cx="0" cy="0" r="1" gradientTransform="matrix(76800 0 0 76647.3 25440 26348.1)" gradientUnits="userSpaceOnUse"><stop offset=".1" stop-color="#810220"/><stop offset=".3" stop-color="#FC4055" stop-opacity="0"/></radialGradient><radialGradient id="devicon-firefox-20-g" cx="0" cy="0" r="1" gradientTransform="matrix(47661.7 0 0 47776.1 38685 4739)" gradientUnits="userSpaceOnUse"><stop stop-color="#FF9640"/><stop offset=".8" stop-color="#FC4055"/></radialGradient><radialGradient id="devicon-firefox-21-h" cx="0" cy="0" r="1" gradientTransform="matrix(48520.4 0 0 48637 39114.4 7752)" gradientUnits="userSpaceOnUse"><stop offset=".1" stop-color="#FFDE67"/><stop offset=".8" stop-color="#FF9640" stop-opacity="0"/></radialGradient><radialGradient id="devicon-firefox-22-i" cx="0" cy="0" r="1" gradientTransform="matrix(23186.8 0 0 23242.4 27091.7 21094.9)" gradientUnits="userSpaceOnUse"><stop offset=".4" stop-color="#FC4055"/><stop offset=".6" stop-color="#FF9640" stop-opacity="0"/></radialGradient><radialGradient id="devicon-firefox-23-j" cx="0" cy="0" r="1" gradientTransform="matrix(23186.8 0 0 23242.4 22797.8 22386.1)" gradientUnits="userSpaceOnUse"><stop offset=".2" stop-color="#FC4055" stop-opacity=".8"/><stop offset=".5" stop-color="#FF9640" stop-opacity="0"/></radialGradient><radialGradient id="devicon-firefox-24-k" cx="0" cy="0" r="1" gradientTransform="matrix(56479.1 0 0 57621.6 36353.6 689)" gradientUnits="userSpaceOnUse"><stop offset=".1" stop-color="#FFF36E"/><stop offset=".6" stop-color="#FF9640"/><stop offset=".7" stop-color="#FF9640"/></radialGradient><linearGradient id="devicon-firefox-25-l" x1="16534.4" x2="24679.5" y1="-901.8" y2="24204.5" gradientUnits="userSpaceOnUse"><stop stop-color="#B833E1"/><stop offset=".4" stop-color="#9059FF"/><stop offset="1" stop-color="#0090ED"/></linearGradient><linearGradient id="devicon-firefox-26-m" x1="28010.2" x2="12316.7" y1="15340.3" y2="-4349.6" gradientUnits="userSpaceOnUse"><stop stop-color="#592ACB" stop-opacity=".5"/><stop offset=".2" stop-color="#722291" stop-opacity="0"/></linearGradient><linearGradient id="devicon-firefox-27-n" x1="35999.9" x2="14286.5" y1="3908.9" y2="44586.9" gradientUnits="userSpaceOnUse"><stop stop-color="#FFF36E" stop-opacity=".8"/><stop offset=".1" stop-color="#FFF36E" stop-opacity=".7"/><stop offset=".8" stop-color="#FFF36E" stop-opacity="0"/></linearGradient><clipPath id="devicon-firefox-14-a"><path fill="#fff" d="M0 0h600v600H0z"/></clipPath></defs></svg>