<svg xmlns="http://www.w3.org/2000/svg" viewBox="0 0 64 68">
<title>Games · dado tridimensional</title>
<defs>
<linearGradient id="top" x2=".9" y2="1"><stop stop-color="#83e1e8"/><stop offset="1" stop-color="#36a5d0"/></linearGradient>
<linearGradient id="left" x2="1" y2="1"><stop stop-color="#3379c5"/><stop offset="1" stop-color="#31418c"/></linearGradient>
<linearGradient id="right" x2=".2" y2="1"><stop stop-color="#ffb967"/><stop offset="1" stop-color="#e66945"/></linearGradient>
</defs>
<ellipse cx="33" cy="63" rx="23" ry="3" fill="#172c4b" opacity=".18"/>
<path d="M6 20 32 5 58 20 32 35Z" fill="url(#top)"/>
<path d="M6 20 32 35 32 62 6 47Z" fill="url(#left)"/>
<path d="M32 35 58 20 58 47 32 62Z" fill="url(#right)"/>
<path d="M6 20 32 35 58 20M32 35V62" fill="none" stroke="#ffffff" stroke-opacity=".45" stroke-width=".6"/>
<g fill="#f7fcff" transform="matrix(.65 -.375 .65 .375 6 20)">
<circle cx="11" cy="11" r="4"/><circle cx="29" cy="11" r="4"/><circle cx="11" cy="29" r="4"/><circle cx="29" cy="29" r="4"/>
</g>
<g fill="#f4f7ff" transform="matrix(.65 .375 0 .675 6 20)">
<circle cx="10" cy="10" r="4"/><circle cx="30" cy="10" r="4"/><circle cx="20" cy="20" r="4"/><circle cx="10" cy="30" r="4"/><circle cx="30" cy="30" r="4"/>
</g>
<g fill="#fff7e8" transform="matrix(.65 -.375 0 .675 32 35)">
<circle cx="10" cy="10" r="4"/><circle cx="20" cy="20" r="4"/><circle cx="30" cy="30" r="4"/>
</g></svg>
